<?xml version="1.0" encoding="iso-8859-1"?>
<!-- Generator: Adobe Illustrator 19.0.0, SVG Export Plug-In . SVG Version: 6.00 Build 0)  -->
<svg version="1.1" id="Layer_1" xmlns="http://www.w3.org/2000/svg" xmlns:xlink="http://www.w3.org/1999/xlink" x="0px" y="0px"
	 viewBox="0 0 321.481 321.481" style="enable-background:new 0 0 321.481 321.481;" xml:space="preserve">
<g>
	<g>
		<g>
			<path d="M79.492,146.845c0,4.142,3.358,7.5,7.5,7.5c4.142,0,7.5-3.358,7.5-7.5c0-17.111-13.921-31.032-31.032-31.032
				c-17.111,0-31.032,13.921-31.032,31.032c0,4.142,3.358,7.5,7.5,7.5c4.142,0,7.5-3.358,7.5-7.5c0-8.84,7.192-16.032,16.032-16.032
				C72.3,130.814,79.492,138.006,79.492,146.845z"/>
			<path d="M258.02,115.814c-17.111,0-31.032,13.921-31.032,31.032c0,4.142,3.357,7.5,7.5,7.5s7.5-3.358,7.5-7.5
				c0-8.84,7.192-16.032,16.032-16.032c8.84,0,16.032,7.192,16.032,16.032c0,4.142,3.357,7.5,7.5,7.5s7.5-3.358,7.5-7.5
				C289.052,129.735,275.131,115.814,258.02,115.814z"/>
			<path d="M160.74,0.001C72.107,0.001,0,72.108,0,160.741s72.107,160.74,160.74,160.74s160.741-72.108,160.741-160.74
				S249.373,0.001,160.74,0.001z M160.74,306.48C80.378,306.48,15,241.103,15,160.741s65.378-145.74,145.74-145.74
				s145.741,65.379,145.741,145.74S241.102,306.48,160.74,306.48z"/>
			<path d="M242.18,205.84c1.58-2.857,3.029-5.811,4.321-8.866c1.614-3.815-0.171-8.216-3.985-9.83
				c-3.813-1.613-8.215,0.171-9.829,3.986c-12.254,28.97-40.494,47.689-71.946,47.689c-31.534,0-59.803-18.786-72.018-47.86
				c-1.605-3.819-6.002-5.613-9.82-4.009s-5.614,6.001-4.009,9.82c14.561,34.656,48.257,57.05,85.847,57.05
				c10.984,0,21.634-1.929,31.578-5.505l14.456,17.086c6.47,7.645,15.718,11.58,25.026,11.58c7.476,0,14.991-2.54,21.131-7.735
				c13.782-11.667,15.507-32.372,3.845-46.155L242.18,205.84z M243.243,257.795c-7.472,6.32-18.694,5.387-25.018-2.084
				l-11.734-13.868c2.843-1.602,5.597-3.356,8.254-5.248l10.254,11.87c1.483,1.717,3.575,2.597,5.679,2.597
				c1.737,0,3.482-0.6,4.9-1.825c3.134-2.708,3.48-7.444,0.772-10.578l-10.133-11.729c2.578-2.551,5.012-5.26,7.29-8.117
				l11.818,13.966C251.647,240.249,250.711,251.472,243.243,257.795z"/>
		</g>
	</g>
</g>
<g>
</g>
<g>
</g>
<g>
</g>
<g>
</g>
<g>
</g>
<g>
</g>
<g>
</g>
<g>
</g>
<g>
</g>
<g>
</g>
<g>
</g>
<g>
</g>
<g>
</g>
<g>
</g>
<g>
</g>
</svg>
